# xmcd CD database file
#
# Track frame offsets:
#	150
#	14077
#	22507
#	41507
#	58772
#	68802
#	77712
#	94787
#	113062
#	129027
#	141970
#	156960
#	172527
#	179527
#
# Disc length: 2583 seconds
#
# Revision: 1
# Processed by: cddbd v1.5.2PL0 Copyright (c) Steve Scherf et al.
# Submitted via: CDex 1.70beta2
#
DISCID=a90a150e
DTITLE=渡辺宙明 - 光速電神アルベガス音楽集
DYEAR=2004
DGENRE=Anime
TTITLE0=Mojo／こおろぎ'73/光速電神アルベガス
TTITLE1=侵略者(D01／E'01A／E'01B／E'08／B'06)
TTITLE2=青葉学園(C01,C02,F02,C06,C04,C14)
TTITLE3=松本里江/午後のシルエット
TTITLE4=デリンジャー襲来(E'07,B01,A'08)
TTITLE5=戦闘(A04,A'03)
TTITLE6=美しき想い(C10,E11,C12,C'7A,C'7)
TTITLE7=こおろぎ'73/SPARKLING MOMENT
TTITLE8=青春賛歌(D0,C03,E13,C08,C13,F01)
TTITLE9=地球の危機(E02,B04,B'02,A'07)
TTITLE10=Mojo/戦いに赴く前に
TTITLE11=決戦の時(A'01,A'06,A'05)
TTITLE12=明日を夢見て(C'09,C05)
TTITLE13=Mojo／こおろぎ'73/若さのフォーメーション
EXTD=YEAR: 2004
EXTT0=
EXTT1=
EXTT2=
EXTT3=
EXTT4=
EXTT5=
EXTT6=
EXTT7=
EXTT8=
EXTT9=
EXTT10=
EXTT11=
EXTT12=
EXTT13=
PLAYORDER=
